<svg width="32" height="32" viewBox="0 0 32 32" fill="none" xmlns="http://www.w3.org/2000/svg">
<path d="M24.0535 18.0666C23.4935 18.6133 23.1735 19.4 23.2535 20.24C23.3735 21.68 24.6935 22.7333 26.1335 22.7333H28.6668V24.32C28.6668 27.08 26.4135 29.3333 23.6535 29.3333H10.1735C10.5868 28.9866 10.9468 28.56 11.2268 28.08C11.7202 27.28 12.0002 26.3333 12.0002 25.3333C12.0002 22.3866 9.6135 20 6.66683 20C5.4135 20 4.2535 20.44 3.3335 21.1733V15.3467C3.3335 12.5867 5.58682 10.3333 8.34682 10.3333H23.6535C26.4135 10.3333 28.6668 12.5867 28.6668 15.3467V17.2667H25.9735C25.2268 17.2667 24.5468 17.56 24.0535 18.0666Z" stroke="#05CA60" stroke-width="1.5" stroke-linecap="round" stroke-linejoin="round"/>
<path d="M3.3335 16.5466V10.4534C3.3335 8.86671 4.30682 7.45332 5.78682 6.89332L16.3735 2.89332C18.0268 2.26666 19.8002 3.49336 19.8002 5.26669V10.3333" stroke="#05CA60" stroke-width="1.5" stroke-linecap="round" stroke-linejoin="round"/>
<path d="M30.0786 18.6269V21.3736C30.0786 22.1069 29.4919 22.7069 28.7452 22.7336H26.1319C24.6919 22.7336 23.3719 21.6802 23.2519 20.2402C23.1719 19.4002 23.4919 18.6136 24.0519 18.0669C24.5452 17.5602 25.2252 17.2669 25.9719 17.2669H28.7452C29.4919 17.2936 30.0786 17.8935 30.0786 18.6269Z" stroke="#05CA60" stroke-width="1.5" stroke-linecap="round" stroke-linejoin="round"/>
<path d="M9.3335 16H18.6668" stroke="#05CA60" stroke-width="1.5" stroke-linecap="round" stroke-linejoin="round"/>
<path d="M12.0002 25.3333C12.0002 26.3333 11.7202 27.28 11.2268 28.08C10.9468 28.56 10.5868 28.9867 10.1735 29.3333C9.24017 30.1733 8.0135 30.6667 6.66683 30.6667C4.72016 30.6667 3.02683 29.6267 2.10683 28.08C1.6135 27.28 1.3335 26.3333 1.3335 25.3333C1.3335 23.6533 2.10683 22.1467 3.3335 21.1733C4.2535 20.44 5.4135 20 6.66683 20C9.6135 20 12.0002 22.3867 12.0002 25.3333Z" stroke="#05CA60" stroke-width="1.5" stroke-miterlimit="10" stroke-linecap="round" stroke-linejoin="round"/>
<path d="M4.58887 25.3327L5.90885 26.6527L8.74886 24.026" stroke="#05CA60" stroke-width="1.5" stroke-linecap="round" stroke-linejoin="round"/>
</svg>
