<svg width="32" height="32" viewBox="0 0 32 32" fill="none" xmlns="http://www.w3.org/2000/svg">
<path d="M15.9998 29.3333C23.3636 29.3333 29.3332 23.3638 29.3332 16C29.3332 8.63619 23.3636 2.66666 15.9998 2.66666C8.63604 2.66666 2.6665 8.63619 2.6665 16C2.6665 23.3638 8.63604 29.3333 15.9998 29.3333Z" stroke="#8D9FA8" stroke-width="1.5" stroke-linecap="round" stroke-linejoin="round"/>
<path d="M10.6802 19.3467C10.9202 19.7467 11.2135 20.12 11.5468 20.4534C14.0002 22.9067 17.9868 22.9067 20.4535 20.4534C21.4535 19.4534 22.0268 18.1866 22.2135 16.8933" stroke="#8D9FA8" stroke-width="1.5" stroke-linecap="round" stroke-linejoin="round"/>
<path d="M9.78662 15.1067C9.97329 13.8 10.5466 12.5466 11.5466 11.5466C14 9.0933 17.9866 9.0933 20.4533 11.5466C20.8 11.8933 21.0799 12.2667 21.3199 12.6533" stroke="#8D9FA8" stroke-width="1.5" stroke-linecap="round" stroke-linejoin="round"/>
<path d="M10.4268 22.9067V19.3467H13.9867" stroke="#8D9FA8" stroke-width="1.5" stroke-linecap="round" stroke-linejoin="round"/>
<path d="M21.5732 9.09335V12.6533H18.0132" stroke="#8D9FA8" stroke-width="1.5" stroke-linecap="round" stroke-linejoin="round"/>
</svg>
