<svg width="48" height="49" viewBox="0 0 48 49" fill="none" xmlns="http://www.w3.org/2000/svg">
<path d="M33.9898 8.5H13.9898C6.32977 8.5 4.18977 10.34 4.00977 17.5C7.86977 17.5 10.9898 20.64 10.9898 24.5C10.9898 28.36 7.86977 31.48 4.00977 31.5C4.18977 38.66 6.32977 40.5 13.9898 40.5H33.9898C41.9898 40.5 43.9898 38.5 43.9898 30.5V18.5C43.9898 10.5 41.9898 8.5 33.9898 8.5Z" stroke="#0582CA" stroke-width="1.5" stroke-linecap="round" stroke-linejoin="round"/>
<path d="M17.9863 8.5V15.5" stroke="#0582CA" stroke-width="1.5" stroke-linecap="round" stroke-linejoin="round"/>
<path d="M17.9863 33.5V40.5" stroke="#0582CA" stroke-width="1.5" stroke-linecap="round" stroke-linejoin="round"/>
<path d="M30.05 19.16L31.29 21.66C31.41 21.9 31.65 22.08 31.91 22.12L34.67 22.52C35.35 22.62 35.63 23.46 35.13 23.94L33.13 25.88C32.93 26.06 32.85 26.34 32.89 26.62L33.37 29.36C33.49 30.04 32.77 30.56 32.17 30.24L29.71 28.94C29.47 28.82 29.17 28.82 28.93 28.94L26.47 30.24C25.85 30.56 25.15 30.04 25.27 29.36L25.75 26.62C25.79 26.34 25.71 26.08 25.51 25.88L23.53 23.94C23.03 23.46 23.31 22.62 23.99 22.52L26.75 22.12C27.03 22.08 27.25 21.92 27.37 21.66L28.59 19.16C28.87 18.54 29.75 18.54 30.05 19.16Z" stroke="#0582CA" stroke-width="1.5" stroke-linecap="round" stroke-linejoin="round"/>
</svg>
