<svg width="49" height="49" viewBox="0 0 49 49" fill="none" xmlns="http://www.w3.org/2000/svg">
<path d="M30.5 4.5V24.5C30.5 26.7 28.7 28.5 26.5 28.5H4.5V15.74C5.96 17.48 8.20005 18.56 10.6801 18.5C12.7001 18.46 14.52 17.68 15.88 16.38C16.5 15.86 17.02 15.2 17.42 14.48C18.14 13.26 18.54 11.8199 18.5 10.3199C18.44 7.97995 17.4 5.92 15.78 4.5H30.5Z" stroke="#0582CA" stroke-width="1.5" stroke-linecap="round" stroke-linejoin="round"/>
<path d="M44.5 28.5V34.5C44.5 37.82 41.82 40.5 38.5 40.5H36.5C36.5 38.3 34.7 36.5 32.5 36.5C30.3 36.5 28.5 38.3 28.5 40.5H20.5C20.5 38.3 18.7 36.5 16.5 36.5C14.3 36.5 12.5 38.3 12.5 40.5H10.5C7.18 40.5 4.5 37.82 4.5 34.5V28.5H26.5C28.7 28.5 30.5 26.7 30.5 24.5V10.5H34.1801C35.6201 10.5 36.94 11.28 37.66 12.52L41.08 18.5H38.5C37.4 18.5 36.5 19.4 36.5 20.5V26.5C36.5 27.6 37.4 28.5 38.5 28.5H44.5Z" stroke="#0582CA" stroke-width="1.5" stroke-linecap="round" stroke-linejoin="round"/>
<path d="M16.5 44.5C18.7091 44.5 20.5 42.7091 20.5 40.5C20.5 38.2909 18.7091 36.5 16.5 36.5C14.2909 36.5 12.5 38.2909 12.5 40.5C12.5 42.7091 14.2909 44.5 16.5 44.5Z" stroke="#0582CA" stroke-width="1.5" stroke-linecap="round" stroke-linejoin="round"/>
<path d="M32.5 44.5C34.7091 44.5 36.5 42.7091 36.5 40.5C36.5 38.2909 34.7091 36.5 32.5 36.5C30.2909 36.5 28.5 38.2909 28.5 40.5C28.5 42.7091 30.2909 44.5 32.5 44.5Z" stroke="#0582CA" stroke-width="1.5" stroke-linecap="round" stroke-linejoin="round"/>
<path d="M44.5 24.5V28.5H38.5C37.4 28.5 36.5 27.6 36.5 26.5V20.5C36.5 19.4 37.4 18.5 38.5 18.5H41.08L44.5 24.5Z" stroke="#0582CA" stroke-width="1.5" stroke-linecap="round" stroke-linejoin="round"/>
<path d="M18.4999 10.32C18.5399 11.82 18.1399 13.26 17.4199 14.48C17.0199 15.2 16.4999 15.86 15.8799 16.38C14.5199 17.68 12.6999 18.46 10.6799 18.5C8.19991 18.56 5.95986 17.48 4.49986 15.74C4.21986 15.44 3.97986 15.1 3.75986 14.76C2.97986 13.58 2.53986 12.1801 2.49986 10.6801C2.43986 8.16009 3.55984 5.86002 5.35984 4.36002C6.71984 3.24002 8.4398 2.54004 10.3198 2.50004C12.4198 2.46004 14.3399 3.22004 15.7799 4.50004C17.3999 5.92004 18.4399 7.97999 18.4999 10.32Z" stroke="#0582CA" stroke-width="1.5" stroke-miterlimit="10" stroke-linecap="round" stroke-linejoin="round"/>
<path d="M7.37988 10.5601L9.3999 12.48L13.5798 8.43994" stroke="#0582CA" stroke-width="1.5" stroke-linecap="round" stroke-linejoin="round"/>
</svg>
