<svg width="49" height="49" viewBox="0 0 49 49" fill="none" xmlns="http://www.w3.org/2000/svg">
<path d="M6.83984 15.38L24.4998 25.6L42.0398 15.4399" stroke="#0582CA" stroke-width="1.5" stroke-linecap="round" stroke-linejoin="round"/>
<path d="M24.5 43.72V25.58" stroke="#0582CA" stroke-width="1.5" stroke-linecap="round" stroke-linejoin="round"/>
<path d="M20.3602 5.46L9.68024 11.4001C7.26024 12.7401 5.28027 16.1 5.28027 18.86V30.1601C5.28027 32.9201 7.26024 36.28 9.68024 37.62L20.3602 43.5601C22.6402 44.8201 26.3802 44.8201 28.6602 43.5601L39.3403 37.62C41.7603 36.28 43.7402 32.9201 43.7402 30.1601V18.86C43.7402 16.1 41.7603 12.7401 39.3403 11.4001L28.6602 5.46C26.3602 4.18 22.6402 4.18 20.3602 5.46Z" stroke="#0582CA" stroke-width="1.5" stroke-linecap="round" stroke-linejoin="round"/>
<path d="M34.4995 26.98V19.66L15.5195 8.69995" stroke="#0582CA" stroke-width="1.5" stroke-linecap="round" stroke-linejoin="round"/>
</svg>
