<svg width="48" height="49" viewBox="0 0 48 49" fill="none" xmlns="http://www.w3.org/2000/svg">
<path d="M41.8202 22.74C41.8202 32.52 34.7202 41.68 25.0202 44.36C24.3602 44.54 23.6402 44.54 22.9802 44.36C13.2802 41.68 6.18018 32.52 6.18018 22.74V13.9599C6.18018 12.3199 7.42021 10.46 8.96021 9.83995L20.1002 5.28001C22.6002 4.26001 25.4202 4.26001 27.9202 5.28001L39.0602 9.83995C40.5802 10.46 41.8402 12.3199 41.8402 13.9599L41.8202 22.74Z" stroke="#0582CA" stroke-width="1.5" stroke-linecap="round" stroke-linejoin="round"/>
<path d="M24 25.5C26.2091 25.5 28 23.7091 28 21.5C28 19.2909 26.2091 17.5 24 17.5C21.7909 17.5 20 19.2909 20 21.5C20 23.7091 21.7909 25.5 24 25.5Z" stroke="#0582CA" stroke-width="1.5" stroke-miterlimit="10" stroke-linecap="round" stroke-linejoin="round"/>
<path d="M24 25.5V31.5" stroke="#0582CA" stroke-width="1.5" stroke-miterlimit="10" stroke-linecap="round" stroke-linejoin="round"/>
</svg>
