<svg width="32" height="32" viewBox="0 0 32 32" fill="none" xmlns="http://www.w3.org/2000/svg">
<path d="M12 29.3334H20C26.6667 29.3334 29.3334 26.6667 29.3334 20.0001V12.0001C29.3334 5.33341 26.6667 2.66675 20 2.66675H12C5.33335 2.66675 2.66669 5.33341 2.66669 12.0001V20.0001C2.66669 26.6667 5.33335 29.3334 12 29.3334Z" stroke="#FBFDFE" stroke-width="1.5" stroke-linecap="round" stroke-linejoin="round"/>
<path d="M16 20.6666C18.5773 20.6666 20.6666 18.5772 20.6666 15.9999C20.6666 13.4226 18.5773 11.3333 16 11.3333C13.4227 11.3333 11.3333 13.4226 11.3333 15.9999C11.3333 18.5772 13.4227 20.6666 16 20.6666Z" stroke="#FBFDFE" stroke-width="1.5" stroke-linecap="round" stroke-linejoin="round"/>
<path d="M23.5148 9.33341H23.5303" stroke="#FBFDFE" stroke-width="2" stroke-linecap="round" stroke-linejoin="round"/>
</svg>
